<svg width="368" height="368" viewBox="0 0 368 368" fill="none" xmlns="http://www.w3.org/2000/svg">
<path d="M184 0L343.349 92V276L184 368L24.6513 276V92L184 0Z" fill="#504887"/>
<path d="M107.545 99.1833C107.545 99.1833 106.318 165.397 107.545 175.298C108.423 182.38 111.28 186.226 116.209 191.387C120.051 195.41 127.966 199.431 127.966 199.431V114.035L183.66 175.298L239.353 114.035V199.431C239.353 199.431 247.236 195.379 251.111 191.387C256.517 185.817 258.003 183.012 259.774 176.535C261.546 170.059 260.393 99.1833 260.393 99.1833L239.353 80L183.66 143.738L127.966 80L107.545 99.1833Z" fill="url(#paint0_linear_214_47)"/>
<path d="M140.974 148.07C140.974 148.07 139.734 203.763 140.974 207.476C142.612 212.382 144.925 214.835 149.018 217.996C152.786 220.905 160.157 222.947 160.157 222.947L158.301 198.194L183.672 229.135L209.662 198.194L205.331 222.947C205.331 222.947 212.567 220.722 216.469 217.996C221.669 214.363 225.25 211.72 226.989 205.62C228.225 201.288 226.989 146.213 226.989 146.213L183.672 196.337L140.974 148.07Z" fill="url(#paint1_linear_214_47)"/>
<path d="M136.288 250.08C139.52 250.08 142.08 251.024 143.968 252.912C145.856 254.768 146.8 257.568 146.8 261.312V276H140.8V262.08C140.8 259.84 140.304 258.16 139.312 257.04C138.32 255.888 136.896 255.312 135.04 255.312C133.024 255.312 131.408 255.984 130.192 257.328C128.976 258.64 128.368 260.528 128.368 262.992V276H122.368V262.08C122.368 259.84 121.872 258.16 120.88 257.04C119.888 255.888 118.464 255.312 116.608 255.312C114.56 255.312 112.928 255.968 111.712 257.28C110.528 258.592 109.936 260.496 109.936 262.992V276H103.936V250.368H109.648V253.632C110.608 252.48 111.808 251.6 113.248 250.992C114.688 250.384 116.288 250.08 118.048 250.08C119.968 250.08 121.664 250.448 123.136 251.184C124.64 251.888 125.824 252.944 126.688 254.352C127.744 253.008 129.104 251.968 130.768 251.232C132.432 250.464 134.272 250.08 136.288 250.08ZM186.819 250.08C190.051 250.08 192.611 251.024 194.499 252.912C196.387 254.768 197.331 257.568 197.331 261.312V276H191.331V262.08C191.331 259.84 190.835 258.16 189.843 257.04C188.851 255.888 187.427 255.312 185.571 255.312C183.555 255.312 181.939 255.984 180.723 257.328C179.507 258.64 178.899 260.528 178.899 262.992V276H172.899V262.08C172.899 259.84 172.403 258.16 171.411 257.04C170.419 255.888 168.995 255.312 167.139 255.312C165.091 255.312 163.459 255.968 162.243 257.28C161.059 258.592 160.467 260.496 160.467 262.992V276H154.467V250.368H160.179V253.632C161.139 252.48 162.339 251.6 163.779 250.992C165.219 250.384 166.819 250.08 168.579 250.08C170.499 250.08 172.195 250.448 173.667 251.184C175.171 251.888 176.355 252.944 177.219 254.352C178.275 253.008 179.635 251.968 181.299 251.232C182.963 250.464 184.803 250.08 186.819 250.08ZM203.703 260.16H216.903V265.152H203.703V260.16ZM248.283 250.368V276H242.571V272.736C241.611 273.888 240.411 274.784 238.971 275.424C237.531 276.032 235.979 276.336 234.315 276.336C230.891 276.336 228.187 275.392 226.203 273.504C224.251 271.584 223.275 268.752 223.275 265.008V250.368H229.275V264.192C229.275 266.496 229.787 268.224 230.811 269.376C231.867 270.496 233.355 271.056 235.275 271.056C237.419 271.056 239.115 270.4 240.363 269.088C241.643 267.744 242.283 265.824 242.283 263.328V250.368H248.283ZM256.139 250.368H262.139V276H256.139V250.368ZM259.163 246.144C258.075 246.144 257.163 245.808 256.427 245.136C255.691 244.432 255.323 243.568 255.323 242.544C255.323 241.52 255.691 240.672 256.427 240C257.163 239.296 258.075 238.944 259.163 238.944C260.251 238.944 261.163 239.28 261.899 239.952C262.635 240.592 263.003 241.408 263.003 242.4C263.003 243.456 262.635 244.352 261.899 245.088C261.195 245.792 260.283 246.144 259.163 246.144Z" fill="white"/>
<defs>
<linearGradient id="paint0_linear_214_47" x1="181.877" y1="74.5488" x2="181.877" y2="163.751" gradientUnits="userSpaceOnUse">
<stop stop-color="#F2C03C"/>
<stop offset="1" stop-color="#EE884C"/>
</linearGradient>
<linearGradient id="paint1_linear_214_47" x1="182.845" y1="142.429" x2="182.845" y2="204.362" gradientUnits="userSpaceOnUse">
<stop stop-color="#F2C03C"/>
<stop offset="1" stop-color="#EE884C"/>
</linearGradient>
</defs>
</svg>
