<svg width="188" height="188" viewBox="0 0 188 188" fill="none" xmlns="http://www.w3.org/2000/svg">
<path d="M94 0L175.406 47V141L94 188L12.5936 141V47L94 0Z" fill="#504887"/>
<path d="M49.6901 62.5375C49.6901 62.5375 48.9877 100.432 49.6901 106.099C50.1925 110.152 51.8275 112.353 54.6483 115.307C56.8475 117.61 61.3773 119.911 61.3773 119.911V71.0373L93.2515 106.099L125.126 71.0373V119.911C125.126 119.911 129.637 117.592 131.855 115.307C134.949 112.12 135.799 110.514 136.813 106.807C137.827 103.1 137.167 62.5375 137.167 62.5375L125.126 51.5586L93.2515 88.0368L61.3773 51.5586L49.6901 62.5375Z" fill="url(#paint0_linear_243_42)"/>
<path d="M68.8212 90.5156C68.8212 90.5156 68.1117 122.39 68.8212 124.515C69.7587 127.322 71.0825 128.726 73.4253 130.535C75.5816 132.2 79.8001 133.369 79.8001 133.369L78.7376 119.202L93.2581 136.91L108.133 119.202L105.654 133.369C105.654 133.369 109.795 132.096 112.028 130.535C115.005 128.456 117.053 126.943 118.049 123.452C118.756 120.973 118.049 89.4531 118.049 89.4531L93.2581 118.14L68.8212 90.5156Z" fill="url(#paint1_linear_243_42)"/>
<defs>
<linearGradient id="paint0_linear_243_42" x1="92.231" y1="48.4388" x2="92.231" y2="99.4904" gradientUnits="userSpaceOnUse">
<stop stop-color="#F2C03C"/>
<stop offset="1" stop-color="#EE884C"/>
</linearGradient>
<linearGradient id="paint1_linear_243_42" x1="92.7848" y1="87.287" x2="92.7848" y2="122.732" gradientUnits="userSpaceOnUse">
<stop stop-color="#F2C03C"/>
<stop offset="1" stop-color="#EE884C"/>
</linearGradient>
</defs>
</svg>
