<svg width="40" height="62" viewBox="0 0 40 62" fill="none" xmlns="http://www.w3.org/2000/svg">
<path d="M29.0912 24.8057L19.9997 33.897L10.9083 24.8057C5.88732 19.7846 5.88732 11.644 10.9083 6.62295C15.9294 1.60192 24.07 1.60192 29.0912 6.62295C34.1122 11.644 34.1122 19.7846 29.0912 24.8057ZM19.9997 18.5715C21.5777 18.5715 22.8569 17.2923 22.8569 15.7143C22.8569 14.1364 21.5777 12.8572 19.9997 12.8572C18.4217 12.8572 17.1426 14.1364 17.1426 15.7143C17.1426 17.2923 18.4217 18.5715 19.9997 18.5715Z" fill="#02A86A"/>
<path d="M40 50.7143C40 56.6316 31.0457 61.4286 20 61.4286C8.9543 61.4286 0 56.6316 0 50.7143C0 44.7969 8.9543 40 20 40C31.0457 40 40 44.7969 40 50.7143ZM3.01674 50.7143C3.01674 55.7391 10.6204 59.8125 20 59.8125C29.3796 59.8125 36.9833 55.7391 36.9833 50.7143C36.9833 45.6895 29.3796 41.6161 20 41.6161C10.6204 41.6161 3.01674 45.6895 3.01674 50.7143Z" fill="#02A86A"/>
</svg>
