<svg width="48" height="48" viewBox="0 0 48 48" fill="none" xmlns="http://www.w3.org/2000/svg">
<rect x="2" y="2" width="44" height="44" rx="22" fill="#F0FF12"/>
<rect x="2" y="2" width="44" height="44" rx="22" stroke="#E7DFDF" stroke-width="3"/>
<path d="M16.4238 18.7255L21.7944 16.4238L26.3977 18.7255L31.2335 16.653C31.4283 16.5695 31.6538 16.6597 31.7373 16.8545C31.7577 16.9022 31.7683 16.9536 31.7683 17.0056V29.4666L26.3977 31.7683L21.7944 29.4666L16.9586 31.5391C16.7638 31.6226 16.5383 31.5324 16.4548 31.3376C16.4344 31.2899 16.4238 31.2384 16.4238 31.1865V18.7255ZM27.165 29.7701L30.2338 28.4548V18.7509L27.165 20.0661V29.7701ZM25.6305 29.6691V20.0575L22.5616 18.523V28.1346L25.6305 29.6691ZM21.0272 28.126V18.4221L17.9583 19.7373V29.4412L21.0272 28.126Z" fill="black"/>
</svg>
